HIERARCHY
ROOT hip
{
	OFFSET 0.000000 0.000000 0.000000 
	CHANNELS 6 Xposition Yposition Zposition Xrotation Zrotation Yrotation
	JOINT abdomen
	{
		OFFSET 0.000000 3.402643 0.000000 
		CHANNELS 3 Xrotation Zrotation Yrotation
		JOINT chest
		{
			OFFSET 0.000000 8.438565 -0.680529 
			CHANNELS 3 Xrotation Zrotation Yrotation
			JOINT neck
			{
				OFFSET 0.000000 10.207942 -0.272212 
				CHANNELS 3 Xrotation Zrotation Yrotation
				JOINT head
				{
					OFFSET 0.000000 3.130431 0.000000 
					CHANNELS 3 Xrotation Zrotation Yrotation
					End Site
					{
						OFFSET 0.000000 3.130435 0.000000 
					}
				}
			}
			JOINT lCollar
			{
				OFFSET 3.470700 6.669187 -0.816635 
				CHANNELS 3 Yrotation Zrotation Xrotation
				JOINT lShldr
				{
					OFFSET 3.198488 0.000000 0.000000 
					CHANNELS 3 Zrotation Yrotation Xrotation
					JOINT lForeArm
					{
						OFFSET 10.139888 0.000000 0.000000 
						CHANNELS 3 Yrotation Zrotation Xrotation
						JOINT lHand
						{
							OFFSET 8.370511 0.000000 0.000000 
							CHANNELS 3 Zrotation Yrotation Xrotation
							End Site
							{
								OFFSET 4.083176 0.000000 0.000000 
							}
						}
					}
				}
			}
			JOINT rCollar
			{
				OFFSET -3.470700 6.669187 -0.816635 
				CHANNELS 3 Yrotation Zrotation Xrotation
				JOINT rShldr
				{
					OFFSET -3.198488 0.000000 0.000000 
					CHANNELS 3 Zrotation Yrotation Xrotation
					JOINT rForeArm
					{
						OFFSET -10.139888 0.000000 0.000000 
						CHANNELS 3 Yrotation Zrotation Xrotation
						JOINT rHand
						{
							OFFSET -8.370511 0.000000 0.000000 
							CHANNELS 3 Zrotation Yrotation Xrotation
							End Site
							{
								OFFSET -4.083176 0.000000 0.000000 
							}
						}
					}
				}
			}
		}
	}
	JOINT lThigh
	{
		OFFSET 5.308129 -1.633274 1.361059 
		CHANNELS 3 Xrotation Zrotation Yrotation
		JOINT lShin
		{
			OFFSET -2.041588 -20.007561 0.000000 
			CHANNELS 3 Xrotation Zrotation Yrotation
			JOINT lFoot
			{
				OFFSET 0.000000 -19.190928 -1.224953 
				CHANNELS 3 Xrotation Yrotation Zrotation
				End Site
				{
					OFFSET 0.000000 -2.449906 4.627600 
				}
			}
		}
	}
	JOINT rThigh
	{
		OFFSET -5.308129 -1.633274 1.361059 
		CHANNELS 3 Xrotation Zrotation Yrotation
		JOINT rShin
		{
			OFFSET 2.041588 -20.007561 0.000000 
			CHANNELS 3 Xrotation Zrotation Yrotation
			JOINT rFoot
			{
				OFFSET 0.000000 -19.190928 -1.224953 
				CHANNELS 3 Xrotation Yrotation Zrotation
				End Site
				{
					OFFSET 0.000000 -2.449906 4.627600 
				}
			}
		}
	}
}
MOTION
Frames: 16
Frame Time: 0.011111
13.835919 50.611050 -48.766270 30.031721 -7.302100 6.216998 -11.989762 9.476639 -7.404525 -20.758377 2.044616 -2.490256 -22.686493 -5.157211 -6.777532 55.143269 6.478455 -14.592237 -5.788594 -15.737329 -1.465587 -57.154263 -0.994478 26.557001 -54.289211 8.556235 9.926461 8.524705 12.647240 -39.212296 7.611086 14.174596 -1.900835 46.892570 -1.317376 22.510590 47.345749 -7.053216 7.116277 -8.534408 -12.637552 63.460796 -13.533733 4.852255 21.364851 39.387184 -4.705934 -5.995175 29.596087 41.502251 -24.729843 -38.334949 6.892931 -4.780776 29.491079 5.383976 4.763062 -46.369625 -15.084186 -13.944273 
13.846161 50.580647 -48.758587 30.019962 -7.347222 6.259199 -12.031595 9.554828 -7.404342 -20.885353 2.058611 -2.495533 -22.801411 -5.168342 -6.587124 55.694168 6.541659 -14.186875 -5.788594 -15.737329 -1.465587 -57.244293 -0.973722 26.522236 -54.108822 8.520627 9.842219 8.524705 12.647240 -39.368546 7.611086 14.174596 -1.900835 46.919071 -1.383332 22.459538 47.273197 -7.031971 7.078686 -8.534408 -12.637552 63.079937 -13.571341 4.870353 21.199028 39.524250 -4.706026 -6.026543 35.844959 33.942348 -23.207932 -38.001530 6.844406 -5.293921 29.332972 5.379008 4.747863 -46.626911 -13.819615 -13.276547 
13.840718 50.565601 -48.769146 30.061455 -7.358616 6.227617 -12.083723 9.538881 -7.298724 -20.963552 2.066528 -2.459695 -22.971983 -5.019795 -6.374798 56.281574 6.506689 -13.659799 -5.788594 -15.737329 -1.465587 -57.180523 -1.026440 26.701656 -53.973003 8.502326 9.786402 8.524705 12.647240 -39.378307 7.611086 14.174596 -1.900835 47.039383 -1.409981 22.359684 47.304070 -7.040402 7.097434 -8.534408 -12.637552 62.747902 -13.671685 4.912026 21.179647 39.563255 -4.706112 -6.039675 35.546730 34.711826 -23.643415 -37.930805 6.883105 -5.390321 29.272934 5.383572 4.734015 -47.104321 -13.031994 -13.003072 
13.827917 50.564003 -48.778748 30.099165 -7.319279 6.225176 -12.109632 9.446821 -7.265773 -21.002781 2.114035 -2.453327 -23.356146 -4.661473 -6.051334 57.044239 6.125117 -12.972754 -5.788594 -15.737329 -1.465587 -57.189598 -1.135235 26.631889 -53.887600 8.482799 9.746864 8.524705 12.647240 -39.456432 7.611086 14.174596 -1.900835 47.083729 -1.366042 22.325420 47.242115 -7.024130 7.069695 -8.534408 -12.637552 62.552593 -13.735380 4.897711 21.131943 39.564537 -4.696295 -6.026708 35.779987 34.916348 -23.927872 -37.990753 6.912708 -5.148708 29.202635 5.388165 4.728981 -47.236217 -13.163909 -13.185226 
13.825035 50.564003 -48.772350 30.126465 -7.270435 6.230128 -12.222071 9.337665 -7.224930 -21.041964 2.142442 -2.436462 -23.832148 -4.400284 -5.907984 58.166439 5.959224 -12.651100 -5.788594 -15.737329 -1.465587 -57.173027 -1.104205 26.652643 -53.898357 8.486198 9.756432 8.524705 12.647240 -39.475964 7.611086 14.174596 -1.900835 47.136242 -1.399796 22.427868 47.127720 -6.990396 7.024396 -8.534408 -12.637552 62.435402 -13.733910 4.857195 21.104420 39.572769 -4.709488 -6.041649 34.487423 36.083294 -24.062935 -37.995358 6.844837 -5.225886 29.174084 5.378611 4.733786 -47.191322 -13.072381 -13.086948 
13.832398 50.563683 -48.755066 30.092243 -7.320453 6.191394 -12.275785 9.398482 -7.136836 -21.178478 2.069612 -2.409315 -24.752764 -4.013695 -5.765684 60.213459 5.578336 -12.377122 -5.788594 -15.737329 -1.465587 -57.117043 -0.873163 26.716469 -53.983761 8.505704 9.795980 8.524705 12.647240 -39.505257 7.611086 14.174596 -1.900835 47.254143 -1.681969 22.603682 47.262398 -7.027555 7.079811 -8.534408 -12.637552 62.327984 -13.665523 4.915869 21.110321 39.553757 -4.706090 -6.029133 40.369358 32.156666 -24.232382 -37.878731 6.844628 -5.515138 29.162722 5.393069 4.707255 -46.924091 -13.019810 -12.877829 
13.834959 50.556004 -48.743221 30.071852 -7.448949 6.129516 -12.323513 9.576876 -7.038483 -21.305243 2.006635 -2.391697 -24.487228 -3.959398 -5.585661 60.542477 5.765402 -11.822849 -5.788594 -15.737329 -1.465587 -57.147331 -0.660242 26.638027 -54.120937 8.529077 9.849894 8.524705 12.647240 -39.456432 7.611086 14.174596 -1.900835 47.334850 -1.889494 22.762821 47.479591 -7.083221 7.163719 -8.534408 -12.637552 62.210796 -13.667704 5.064277 21.064922 39.524521 -4.699779 -6.034120 34.188507 35.574398 -23.488293 -37.799507 6.981440 -5.703518 29.154543 5.378550 4.722318 -46.461601 -13.237855 -12.762558 
13.828877 50.547043 -48.739063 30.027212 -7.418040 6.071894 -12.285874 9.525402 -6.907099 -21.285889 2.038499 -2.353324 -25.092054 -3.627379 -5.372712 61.581963 5.452076 -11.366619 -5.788594 -15.737329 -1.465587 -57.187374 -0.752396 26.566486 -54.046291 8.513204 9.819806 8.524705 12.647240 -39.349010 7.611086 14.174596 -1.900835 47.408291 -1.842460 22.686867 47.584377 -7.117836 7.208009 -8.534408 -12.637552 61.986187 -13.587326 5.032755 21.045410 39.484497 -4.699907 -6.050103 36.987984 32.646347 -22.779787 -37.765636 7.049308 -5.431005 29.154543 5.378558 4.722321 -46.371723 -13.488624 -12.873721 
13.831439 50.540958 -48.721142 29.870651 -7.321537 5.934986 -12.152654 9.431872 -6.674646 -21.334934 2.068935 -2.288133 -25.277134 -3.323387 -5.250749 62.269531 5.180022 -11.056243 -5.788594 -15.737329 -1.465587 -57.263981 -0.769591 26.307716 -53.962070 8.499562 9.786569 8.524705 12.647240 -39.485729 7.611086 14.174596 -1.900835 47.571617 -1.903744 22.241047 47.604675 -7.121146 7.218196 -8.534408 -12.637552 61.497902 -13.323578 4.974064 21.190079 39.405247 -4.715749 -6.019520 36.910927 32.304977 -22.470766 -37.566868 7.108661 -5.255563 29.154224 5.378529 4.732017 -46.210487 -13.778461 -12.979330 
13.846801 50.535198 -48.684971 29.574057 -7.344378 5.773273 -11.934794 9.533265 -6.411945 -21.305634 2.034226 -2.216996 -24.185419 -3.262534 -5.053667 60.954338 5.440441 -10.367561 -5.788594 -15.737329 -1.465587 -57.299011 -0.812214 26.041611 -53.920044 8.492375 9.765826 8.524705 12.647240 -39.681042 7.611086 14.174596 -1.900835 47.699081 -1.811664 21.622110 47.314865 -7.044809 7.097513 -8.534408 -12.637552 60.785015 -12.874601 5.071743 21.393734 39.305897 -4.725562 -6.013422 36.233833 33.171005 -22.790480 -37.098034 7.187191 -5.544104 29.191425 5.397790 4.720701 -44.738815 -15.017036 -12.878817 
13.856083 50.526237 -48.664162 29.403952 -7.309119 5.704960 -11.820566 9.509795 -6.298913 -21.188622 2.069740 -2.175090 -24.013107 -3.050110 -4.886551 60.646908 5.463104 -9.825934 -5.788594 -15.737329 -1.465587 -57.360592 -0.984944 25.704411 -53.750431 8.458711 9.693289 8.524705 12.647240 -39.954475 7.611086 14.174596 -1.900835 47.790958 -1.477817 21.122198 46.848759 -6.916629 6.913946 -8.534408 -12.637552 60.228374 -12.593574 5.034972 21.469412 39.198330 -4.725536 -5.984637 36.098255 33.474312 -22.962214 -36.850750 7.176862 -5.688140 29.212883 5.388222 4.720166 -45.970100 -13.454865 -12.615724 
13.855124 50.519516 -48.661606 29.352390 -7.256926 5.726410 -11.728993 9.431464 -6.234747 -21.306171 2.163738 -2.164285 -24.142952 -2.845802 -4.684942 61.061821 5.361508 -9.321689 -5.788594 -15.737329 -1.465587 -57.492214 -0.938797 25.491640 -53.635124 8.439925 9.639486 8.524705 12.647240 -40.042366 7.611086 14.174596 -1.900835 47.839767 -1.384234 20.852884 46.621052 -6.853930 6.831729 -8.534408 -12.637552 59.857285 -12.464441 4.944776 21.460733 39.138008 -4.735191 -5.992372 36.299152 33.562981 -23.144730 -36.800179 7.176357 -5.518552 29.202635 5.388153 4.728978 -46.512234 -12.995408 -12.613194 
13.865363 50.512474 -48.641121 29.227968 -7.273570 5.714999 -11.674450 9.485882 -6.118143 -21.335417 2.134727 -2.134768 -24.504366 -2.551594 -4.519508 61.864426 5.167459 -8.873081 -5.788594 -15.737329 -1.465587 -57.551025 -0.836562 25.537613 -53.708412 8.451329 9.671202 8.524705 12.647240 -39.954475 7.611086 14.174596 -1.900835 47.931435 -1.325359 20.491529 46.538696 -6.833839 6.804267 -8.534408 -12.637552 59.671730 -12.293323 4.969286 21.545694 39.118004 -4.735123 -6.000314 32.348007 36.284641 -22.913061 -36.608654 7.167353 -5.737064 29.193024 5.388141 4.718396 -45.990593 -13.369454 -12.575212 
13.876248 50.509914 -48.619354 29.178339 -7.440217 5.670256 -11.741855 9.731056 -6.002860 -21.286272 2.030573 -2.098792 -24.739870 -2.346420 -4.372189 62.427349 5.153918 -8.429856 -5.788594 -15.737329 -1.465587 -57.522892 -0.824029 25.666372 -53.719162 8.454777 9.680745 8.524705 12.647240 -39.856823 7.611086 14.174596 -1.900835 48.111599 -1.178434 19.837658 46.280525 -6.760280 6.695955 -8.534408 -12.637552 59.290878 -12.211142 5.149880 21.596298 39.069401 -4.729074 -5.994028 35.044418 34.727196 -23.329309 -36.478504 7.264438 -6.193204 29.222818 5.388250 4.721046 -45.328789 -13.723098 -12.394876 
13.868885 50.503193 -48.622559 29.190037 -7.422171 5.633657 -11.735142 9.676991 -5.900033 -21.481747 2.054585 -2.068119 -24.704340 -2.240121 -4.196153 62.796062 5.242167 -7.899606 -5.788594 -15.737329 -1.465587 -57.540752 -0.639344 25.715460 -53.719162 8.454777 9.680745 8.524705 12.647240 -39.720100 7.611086 14.174596 -1.900835 48.211960 -1.383761 19.878239 46.352917 -6.782858 6.731458 -8.534408 -12.637552 59.378769 -12.214152 5.114431 21.510330 39.048824 -4.744776 -5.978145 33.577309 36.539097 -23.856079 -36.431469 7.342733 -5.919697 29.192711 5.388102 4.728090 -45.810013 -13.081278 -12.258731 
13.869525 50.529118 -48.598549 29.071629 -7.333004 5.491828 -11.676252 9.576316 -5.743641 -21.706734 2.127062 -2.031524 -24.326309 -1.936482 -4.029778 62.893276 5.022050 -7.459244 -5.788594 -15.737329 -1.465587 -57.641552 -0.305703 25.711508 -53.635124 8.439925 9.639486 8.524705 12.647240 -39.632217 7.611086 14.174596 -1.900835 48.250160 -1.831458 20.209860 46.683140 -6.870294 6.850433 -8.534408 -12.637552 59.808456 -11.959386 5.054936 21.644989 38.930038 -4.754860 -5.961673 32.876873 37.444126 -24.071795 -36.490208 7.342906 -5.765662 29.291676 5.388476 4.746633 -44.970425 -14.671391 -12.802986 
